<svg
  width="256px"
  height="256px"
  viewBox="0 0 24 24"
  fill="none"
  xmlns="http://www.w3.org/2000/svg"
>
  <g id="SVGRepo_bgCarrier" stroke-width="0"></g>
  <g
    id="SVGRepo_tracerCarrier"
    stroke-linecap="round"
    stroke-linejoin="round"
  ></g>
  <g id="SVGRepo_iconCarrier">
    <path
      d="M8.83552 12.4444C8.72564 12.6089 8.66699 12.8022 8.66699 13C8.66699 13.1313 8.69285 13.2614 8.74311 13.3827C8.79336 13.504 8.86702 13.6142 8.95988 13.7071C9.05274 13.8 9.16298 13.8736 9.2843 13.9239C9.40563 13.9741 9.53567 14 9.66699 14C9.86477 14 10.0581 13.9414 10.2226 13.8315C10.387 13.7216 10.5152 13.5654 10.5909 13.3827C10.6666 13.2 10.6864 12.9989 10.6478 12.8049C10.6092 12.6109 10.5139 12.4327 10.3741 12.2929C10.2342 12.153 10.0561 12.0578 9.86208 12.0192C9.6681 11.9806 9.46703 12.0004 9.2843 12.0761C9.10158 12.1518 8.9454 12.28 8.83552 12.4444Z"
      stroke="#000000"
      stroke-linejoin="round"
    ></path>
    <path
      d="M13.7414 13.8715C13.9059 13.9814 14.0992 14.04 14.297 14.04L14.287 14.08C14.4226 14.0815 14.5571 14.0553 14.6822 14.0032C14.8074 13.9511 14.9207 13.874 15.0152 13.7767C15.1096 13.6795 15.1833 13.564 15.2318 13.4373C15.2802 13.3107 15.3024 13.1755 15.297 13.04C15.297 12.8422 15.2383 12.6489 15.1285 12.4844C15.0186 12.32 14.8624 12.1918 14.6797 12.1161C14.4969 12.0404 14.2959 12.0206 14.1019 12.0592C13.9079 12.0978 13.7297 12.193 13.5899 12.3329C13.45 12.4727 13.3548 12.6509 13.3162 12.8449C13.2776 13.0389 13.2974 13.24 13.3731 13.4227C13.4488 13.6054 13.577 13.7616 13.7414 13.8715Z"
      stroke="#000000"
      stroke-linejoin="round"
    ></path>
    <path
      fill-rule="evenodd"
      clip-rule="evenodd"
      d="M21.997 12C21.997 17.5228 17.5198 22 11.997 22C6.47415 22 1.99699 17.5228 1.99699 12C1.99699 6.47715 6.47415 2 11.997 2C17.5198 2 21.997 6.47715 21.997 12ZM18.4035 11.2154C18.5652 11.446 18.6567 11.7185 18.667 12C18.6712 12.2755 18.5974 12.5467 18.4541 12.782C18.3108 13.0174 18.1038 13.2073 17.857 13.33C17.8682 13.4765 17.8682 13.6236 17.857 13.77C17.857 16.01 15.247 17.83 12.027 17.83C8.80699 17.83 6.19699 16.01 6.19699 13.77C6.18573 13.6236 6.18573 13.4765 6.19699 13.33C6.00465 13.2416 5.83382 13.1125 5.69635 12.9515C5.55887 12.7906 5.45804 12.6017 5.40084 12.3979C5.34363 12.1941 5.33143 11.9803 5.36506 11.7713C5.3987 11.5623 5.47737 11.3632 5.59563 11.1876C5.71389 11.0121 5.86891 10.8643 6.04994 10.7546C6.23097 10.645 6.43369 10.5759 6.64404 10.5524C6.85439 10.5288 7.06736 10.5513 7.26816 10.6182C7.46897 10.6852 7.65283 10.795 7.80699 10.94C8.95926 10.1585 10.3149 9.73099 11.707 9.71L12.447 6.24C12.4553 6.19983 12.4715 6.16171 12.4946 6.12784C12.5178 6.09398 12.5474 6.06505 12.5819 6.04272C12.6163 6.0204 12.6548 6.00513 12.6951 5.99779C12.7355 5.99046 12.7769 5.99121 12.817 6L15.267 6.49C15.3866 6.28444 15.5756 6.12825 15.8001 6.04948C16.0245 5.9707 16.2696 5.9745 16.4915 6.06019C16.7134 6.14587 16.8975 6.30784 17.0107 6.51701C17.1239 6.72617 17.1589 6.96885 17.1093 7.20147C17.0597 7.4341 16.9288 7.64143 16.7402 7.78627C16.5515 7.9311 16.3174 8.00394 16.0799 7.99172C15.8423 7.9795 15.6169 7.88301 15.4441 7.71958C15.2713 7.55615 15.1624 7.33648 15.137 7.1L12.997 6.65L12.347 9.77C13.7222 9.7995 15.0594 10.2267 16.197 11C16.4002 10.805 16.6555 10.6729 16.9321 10.6196C17.2087 10.5664 17.4948 10.5943 17.7559 10.7C18.0169 10.8057 18.2419 10.9847 18.4035 11.2154Z"
      stroke="#000000"
      stroke-linejoin="round"
    ></path>
    <path
      fill-rule="evenodd"
      clip-rule="evenodd"
      d="M9.75838 15.5632C9.75455 15.5601 9.74967 15.5585 9.74472 15.5587C9.73976 15.559 9.73506 15.5611 9.73155 15.5646C9.72804 15.5681 9.72596 15.5728 9.72572 15.5777L9.7257 15.5788C10.382 16.0598 11.1827 16.3039 11.9966 16.2702C12.0035 16.2699 12.0104 16.2699 12.0173 16.2702C12.837 16.3042 13.6432 16.0564 14.3021 15.5686C14.2996 15.5663 14.2967 15.5644 14.2936 15.563C14.29 15.5615 14.2862 15.5607 14.2824 15.5607C14.2746 15.5606 14.2671 15.5636 14.2615 15.569C14.2525 15.5778 14.2429 15.5858 14.2327 15.5931C13.5829 16.0593 12.7942 16.2909 11.9958 16.2503C11.1982 16.2831 10.413 16.0439 9.76912 15.5716L9.75838 15.5632Z"
      stroke="#000000"
      stroke-linejoin="round"
    ></path>
  </g>
</svg>
